<mxfile host="app.diagrams.net" modified="2024-04-22T07:44:55.648Z" agent="Mozilla/5.0 (Windows NT 10.0; Win64; x64) AppleWebKit/537.36 (KHTML, like Gecko) Chrome/123.0.0.0 Safari/537.36" etag="y-oTnxqPnjw6MkN4GFCq" version="24.2.5" type="github">
  <diagram name="Trang-1" id="kctCWNhfN6Ih3Ri2mS0A">
    <mxGraphModel dx="4096" dy="2687" grid="1" gridSize="10" guides="1" tooltips="1" connect="1" arrows="1" fold="1" page="1" pageScale="1" pageWidth="827" pageHeight="1169" math="0" shadow="0">
      <root>
        <mxCell id="0" />
        <mxCell id="1" parent="0" />
        <mxCell id="hGRgVR9rz7tvGuPTz-lV-1" value="" style="shape=image;verticalLabelPosition=bottom;labelBackgroundColor=default;verticalAlign=top;aspect=fixed;imageAspect=0;image=https://www.aviator.co/blog/wp-content/uploads/2023/01/terraform.png;" vertex="1" parent="1">
          <mxGeometry x="-1620" y="-270" width="413.19" height="310" as="geometry" />
        </mxCell>
      </root>
    </mxGraphModel>
  </diagram>
</mxfile>
